<mxfile host="Electron" modified="2024-05-26T07:00:46.444Z" agent="Mozilla/5.0 (Macintosh; Intel Mac OS X 10_15_7) AppleWebKit/537.36 (KHTML, like Gecko) draw.io/23.1.5 Chrome/120.0.6099.109 Electron/28.1.0 Safari/537.36" etag="lMKDr3sW1AzFR43nIcfw" version="23.1.5" type="device">
  <diagram name="第 1 页" id="1J07XcT0VnBQ8NqRCrMK">
    <mxGraphModel dx="1025" dy="854" grid="0" gridSize="10" guides="1" tooltips="1" connect="1" arrows="1" fold="1" page="1" pageScale="1" pageWidth="650" pageHeight="260" math="0" shadow="0">
      <root>
        <mxCell id="0" />
        <mxCell id="1" parent="0" />
        <mxCell id="aMDbJDx2yIJhO_pV90ng-6" value="" style="rounded=1;whiteSpace=wrap;html=1;dashed=1;fontFamily=Times New Roman;" parent="1" vertex="1">
          <mxGeometry x="21" y="46" width="158" height="60" as="geometry" />
        </mxCell>
        <mxCell id="aMDbJDx2yIJhO_pV90ng-7" value="Record(root.sg.d1)" style="text;html=1;align=center;verticalAlign=middle;resizable=0;points=[];autosize=1;strokeColor=none;fillColor=none;fontFamily=Times New Roman;" parent="1" vertex="1">
          <mxGeometry x="46" y="42" width="109" height="26" as="geometry" />
        </mxCell>
        <mxCell id="aMDbJDx2yIJhO_pV90ng-8" value="s1" style="rounded=0;whiteSpace=wrap;html=1;fillColor=none;strokeColor=#000000;fontFamily=Times New Roman;" parent="1" vertex="1">
          <mxGeometry x="41" y="71" width="40" height="28" as="geometry" />
        </mxCell>
        <mxCell id="aMDbJDx2yIJhO_pV90ng-9" value="s2" style="rounded=0;whiteSpace=wrap;html=1;fillColor=none;strokeColor=#000000;fontFamily=Times New Roman;" parent="1" vertex="1">
          <mxGeometry x="81" y="71" width="40" height="28" as="geometry" />
        </mxCell>
        <mxCell id="aMDbJDx2yIJhO_pV90ng-10" value="s3" style="rounded=0;whiteSpace=wrap;html=1;fillColor=none;strokeColor=#000000;fontFamily=Times New Roman;" parent="1" vertex="1">
          <mxGeometry x="121" y="71" width="40" height="28" as="geometry" />
        </mxCell>
        <mxCell id="aMDbJDx2yIJhO_pV90ng-11" value="" style="rounded=1;whiteSpace=wrap;html=1;dashed=1;fontFamily=Times New Roman;" parent="1" vertex="1">
          <mxGeometry x="21" y="127" width="158" height="60" as="geometry" />
        </mxCell>
        <mxCell id="aMDbJDx2yIJhO_pV90ng-12" value="Record(root.sg.d2)" style="text;html=1;align=center;verticalAlign=middle;resizable=0;points=[];autosize=1;strokeColor=none;fillColor=none;fontFamily=Times New Roman;" parent="1" vertex="1">
          <mxGeometry x="46" y="123" width="109" height="26" as="geometry" />
        </mxCell>
        <mxCell id="aMDbJDx2yIJhO_pV90ng-13" value="s1" style="rounded=0;whiteSpace=wrap;html=1;fillColor=none;strokeColor=#000000;fontFamily=Times New Roman;" parent="1" vertex="1">
          <mxGeometry x="41" y="152" width="40" height="28" as="geometry" />
        </mxCell>
        <mxCell id="aMDbJDx2yIJhO_pV90ng-14" value="s3" style="rounded=0;whiteSpace=wrap;html=1;fillColor=none;strokeColor=#000000;fontFamily=Times New Roman;" parent="1" vertex="1">
          <mxGeometry x="81" y="152" width="40" height="28" as="geometry" />
        </mxCell>
        <mxCell id="aMDbJDx2yIJhO_pV90ng-15" value="s5" style="rounded=0;whiteSpace=wrap;html=1;fillColor=#000000;strokeColor=#000000;fillStyle=hatch;fontFamily=Times New Roman;" parent="1" vertex="1">
          <mxGeometry x="121" y="152" width="40" height="28" as="geometry" />
        </mxCell>
        <mxCell id="aMDbJDx2yIJhO_pV90ng-16" value="..." style="text;html=1;align=center;verticalAlign=middle;whiteSpace=wrap;rounded=0;fontSize=18;fontStyle=1;fontFamily=Times New Roman;" parent="1" vertex="1">
          <mxGeometry x="74" y="200" width="60" height="30" as="geometry" />
        </mxCell>
        <mxCell id="aMDbJDx2yIJhO_pV90ng-17" value="" style="shape=internalStorage;whiteSpace=wrap;html=1;backgroundOutline=1;fillColor=none;strokeColor=#000000;fontColor=#333333;fontFamily=Times New Roman;" parent="1" vertex="1">
          <mxGeometry x="260" y="77" width="174" height="80" as="geometry" />
        </mxCell>
        <mxCell id="aMDbJDx2yIJhO_pV90ng-18" value="时间序列 ID 缓存" style="text;html=1;align=center;verticalAlign=middle;resizable=0;points=[];autosize=1;strokeColor=none;fillColor=none;fontFamily=Times New Roman;" parent="1" vertex="1">
          <mxGeometry x="301" y="75" width="109" height="26" as="geometry" />
        </mxCell>
        <mxCell id="aMDbJDx2yIJhO_pV90ng-20" value="s1" style="rounded=0;whiteSpace=wrap;html=1;fillColor=none;strokeColor=#000000;fontFamily=Times New Roman;" parent="1" vertex="1">
          <mxGeometry x="295.5" y="114" width="40" height="28" as="geometry" />
        </mxCell>
        <mxCell id="aMDbJDx2yIJhO_pV90ng-21" value="s2" style="rounded=0;whiteSpace=wrap;html=1;fillColor=none;strokeColor=#000000;fontFamily=Times New Roman;" parent="1" vertex="1">
          <mxGeometry x="335.5" y="114" width="40" height="28" as="geometry" />
        </mxCell>
        <mxCell id="aMDbJDx2yIJhO_pV90ng-22" value="s3" style="rounded=0;whiteSpace=wrap;html=1;fillColor=none;strokeColor=#000000;fontFamily=Times New Roman;" parent="1" vertex="1">
          <mxGeometry x="375.5" y="114" width="40" height="28" as="geometry" />
        </mxCell>
        <mxCell id="aMDbJDx2yIJhO_pV90ng-26" value="1.检查缓存中是否包含该序列" style="text;html=1;align=center;verticalAlign=middle;resizable=0;points=[];autosize=1;strokeColor=none;fillColor=none;fontFamily=Times New Roman;" parent="1" vertex="1">
          <mxGeometry x="142" y="13" width="171" height="26" as="geometry" />
        </mxCell>
        <mxCell id="aMDbJDx2yIJhO_pV90ng-27" value="通过校验" style="ellipse;whiteSpace=wrap;html=1;aspect=fixed;fillColor=none;strokeColor=#000000;fontFamily=Times New Roman;" parent="1" vertex="1">
          <mxGeometry x="561" y="56" width="80" height="80" as="geometry" />
        </mxCell>
        <mxCell id="aMDbJDx2yIJhO_pV90ng-29" value="" style="endArrow=classic;html=1;rounded=0;exitX=1;exitY=0.25;exitDx=0;exitDy=0;entryX=0;entryY=0.5;entryDx=0;entryDy=0;fontFamily=Times New Roman;" parent="1" source="aMDbJDx2yIJhO_pV90ng-17" target="aMDbJDx2yIJhO_pV90ng-27" edge="1">
          <mxGeometry width="50" height="50" relative="1" as="geometry">
            <mxPoint x="234" y="190" as="sourcePoint" />
            <mxPoint x="284" y="140" as="targetPoint" />
          </mxGeometry>
        </mxCell>
        <mxCell id="aMDbJDx2yIJhO_pV90ng-30" value="" style="endArrow=classic;html=1;rounded=0;exitX=1;exitY=0.5;exitDx=0;exitDy=0;entryX=0;entryY=0.25;entryDx=0;entryDy=0;fontFamily=Times New Roman;" parent="1" source="aMDbJDx2yIJhO_pV90ng-6" target="aMDbJDx2yIJhO_pV90ng-17" edge="1">
          <mxGeometry width="50" height="50" relative="1" as="geometry">
            <mxPoint x="234" y="190" as="sourcePoint" />
            <mxPoint x="284" y="140" as="targetPoint" />
          </mxGeometry>
        </mxCell>
        <mxCell id="aMDbJDx2yIJhO_pV90ng-34" value="" style="endArrow=classic;html=1;rounded=0;exitX=1;exitY=0.5;exitDx=0;exitDy=0;entryX=0;entryY=0.5;entryDx=0;entryDy=0;fontFamily=Times New Roman;" parent="1" source="aMDbJDx2yIJhO_pV90ng-11" target="aMDbJDx2yIJhO_pV90ng-17" edge="1">
          <mxGeometry width="50" height="50" relative="1" as="geometry">
            <mxPoint x="234" y="190" as="sourcePoint" />
            <mxPoint x="284" y="140" as="targetPoint" />
          </mxGeometry>
        </mxCell>
        <mxCell id="aMDbJDx2yIJhO_pV90ng-35" value="语法检查" style="shape=hexagon;perimeter=hexagonPerimeter2;whiteSpace=wrap;html=1;fixedSize=1;fillColor=none;strokeColor=#000000;fontFamily=Times New Roman;" parent="1" vertex="1">
          <mxGeometry x="473" y="166" width="120" height="59" as="geometry" />
        </mxCell>
        <mxCell id="aMDbJDx2yIJhO_pV90ng-36" value="" style="endArrow=classic;html=1;rounded=0;exitX=1;exitY=0.75;exitDx=0;exitDy=0;entryX=0;entryY=0.25;entryDx=0;entryDy=0;fontFamily=Times New Roman;" parent="1" source="aMDbJDx2yIJhO_pV90ng-17" target="aMDbJDx2yIJhO_pV90ng-35" edge="1">
          <mxGeometry width="50" height="50" relative="1" as="geometry">
            <mxPoint x="234" y="190" as="sourcePoint" />
            <mxPoint x="284" y="140" as="targetPoint" />
          </mxGeometry>
        </mxCell>
        <mxCell id="aMDbJDx2yIJhO_pV90ng-37" value="2. 包含" style="text;html=1;align=center;verticalAlign=middle;resizable=0;points=[];autosize=1;strokeColor=none;fillColor=none;fontFamily=Times New Roman;" parent="1" vertex="1">
          <mxGeometry x="474" y="71" width="54" height="26" as="geometry" />
        </mxCell>
        <mxCell id="aMDbJDx2yIJhO_pV90ng-39" value="3. 不包含" style="text;html=1;align=center;verticalAlign=middle;resizable=0;points=[];autosize=1;strokeColor=none;fillColor=none;fontFamily=Times New Roman;" parent="1" vertex="1">
          <mxGeometry x="446" y="134" width="66" height="26" as="geometry" />
        </mxCell>
        <mxCell id="aMDbJDx2yIJhO_pV90ng-40" value="" style="endArrow=classic;html=1;rounded=0;exitX=1;exitY=0.25;exitDx=0;exitDy=0;entryX=0.5;entryY=1;entryDx=0;entryDy=0;fontFamily=Times New Roman;" parent="1" source="aMDbJDx2yIJhO_pV90ng-35" target="aMDbJDx2yIJhO_pV90ng-27" edge="1">
          <mxGeometry width="50" height="50" relative="1" as="geometry">
            <mxPoint x="234" y="190" as="sourcePoint" />
            <mxPoint x="284" y="140" as="targetPoint" />
          </mxGeometry>
        </mxCell>
        <mxCell id="aMDbJDx2yIJhO_pV90ng-41" value="" style="endArrow=classic;html=1;rounded=0;exitX=0;exitY=0.75;exitDx=0;exitDy=0;entryX=0.5;entryY=1;entryDx=0;entryDy=0;edgeStyle=orthogonalEdgeStyle;fontFamily=Times New Roman;" parent="1" source="aMDbJDx2yIJhO_pV90ng-35" target="aMDbJDx2yIJhO_pV90ng-17" edge="1">
          <mxGeometry width="50" height="50" relative="1" as="geometry">
            <mxPoint x="234" y="190" as="sourcePoint" />
            <mxPoint x="284" y="140" as="targetPoint" />
          </mxGeometry>
        </mxCell>
        <mxCell id="aMDbJDx2yIJhO_pV90ng-42" value="4. 将检查通过的数据加入缓存中" style="text;html=1;align=center;verticalAlign=middle;resizable=0;points=[];autosize=1;strokeColor=none;fillColor=none;fontFamily=Times New Roman;" parent="1" vertex="1">
          <mxGeometry x="325" y="230" width="186" height="26" as="geometry" />
        </mxCell>
      </root>
    </mxGraphModel>
  </diagram>
</mxfile>
